PathFileType	4	(X/Y/Z)	2.trc
DataRate	CameraRate	NumFrames	NumMarkers	Units	OrigDataRate	OrigDataStartFrame	OrigNumFrames
147	147	4	50	mm	147	188	1496
Frame#	Time	L_IAS			R_IAS			L_TH1			L_TH2			L_TH3			L_TH4			L_FLE			L_FME			L_SK1			L_SK2			L_SK3			L_SK4			L_FAL			L_TAM			L_FCC			L_FM1			L_FM2			L_FM5			R_TH1			R_TH2			R_TH3			R_TH4			R_FLE			R_FME			R_SK2			R_SK1			R_SK3			R_SK4			R_FAL			R_TAM			R_FCC			R_FM1			R_FM2			R_FM5			R_IPS			L_IPS			CV7			L_SIA			R_SIA			TV10			L_SAE			R_SAE			L_ARM			R_ARM			L_HLE			R_HLE			L_RSP			L_USP			R_RSP			R_USP		
		X1	Y1	Z1	X2	Y2	Z2	X3	Y3	Z3	X4	Y4	Z4	X5	Y5	Z5	X6	Y6	Z6	X7	Y7	Z7	X8	Y8	Z8	X9	Y9	Z9	X10	Y10	Z10	X11	Y11	Z11	X12	Y12	Z12	X13	Y13	Z13	X14	Y14	Z14	X15	Y15	Z15	X16	Y16	Z16	X17	Y17	Z17	X18	Y18	Z18	X19	Y19	Z19	X20	Y20	Z20	X21	Y21	Z21	X22	Y22	Z22	X23	Y23	Z23	X24	Y24	Z24	X25	Y25	Z25	X26	Y26	Z26	X27	Y27	Z27	X28	Y28	Z28	X29	Y29	Z29	X30	Y30	Z30	X31	Y31	Z31	X32	Y32	Z32	X33	Y33	Z33	X34	Y34	Z34	X35	Y35	Z35	X36	Y36	Z36	X37	Y37	Z37	X38	Y38	Z38	X39	Y39	Z39	X40	Y40	Z40	X41	Y41	Z41	X42	Y42	Z42	X43	Y43	Z43	X44	Y44	Z44	X45	Y45	Z45	X46	Y46	Z46	X47	Y47	Z47	X48	Y48	Z48	X49	Y49	Z49	X50	Y50	Z50

188	1.272109	49.145624	726.649176	-488.256671	90.351997	734.356378	-221.527193	152.609314	543.093759	-564.342409	116.234432	518.312004	-569.703210	160.974125	462.711271	-583.968688	196.125337	486.476505	-577.017632	202.715257	373.255332	-566.812923	235.496854	361.319042	-451.115023	201.142916	277.323585	-573.450128	161.949421	292.277326	-584.453532	134.753121	222.222104	-584.825734	175.445915	207.699327	-572.914311	58.040259	17.065099	-527.177743	84.470452	35.991275	-442.890901	-22.061126	-23.241754	-477.656950	187.529531	-10.937308	-462.586169	196.499397	0.453533	-506.097635	155.703797	-27.370091	-569.972884	193.448408	478.690630	-98.389345	232.821492	488.713152	-115.225007	250.920838	417.434833	-122.177330	215.194894	395.094600	-107.236888	199.214520	370.103856	-119.875374	228.866083	358.426904	-240.841683	187.099906	286.032235	-104.056797	147.466127	309.685012	-109.373253	151.660573	222.085135	-102.982104	112.073830	243.051136	-106.164831	33.883386	23.948649	-143.221774	79.809864	28.041670	-223.902108	-27.312501	-19.766325	-209.809335	178.605947	-13.212357	-161.264359	165.874105	5.277954	-111.755903	120.047148	-10.157339	-72.787620	-75.018565	810.091982	-279.939231	-82.387291	809.715396	-375.252908	92.721688	1226.247119	-334.108131	11.600740	1073.884213	-428.246324	45.227437	1070.200936	-230.536693	7.561596	1007.654166	-333.700743	160.414290	1203.836083	-516.785306	221.223915	1198.386268	-173.536020	72.790292	1083.087724	-616.206487	292.755917	1027.488336	-133.727222	-22.164559	963.580419	-661.370572	353.575715	879.019320	-162.739875	32.305564	734.942888	-585.503244	24.760848	734.642559	-648.654791	358.552109	962.219811	-390.397883	409.570256	919.748864	-394.485070
189	1.278912	48.531637	723.257965	-487.698620	89.729104	730.645997	-220.941176	153.021012	541.870279	-563.848864	116.841705	516.744092	-569.319290	162.070645	461.578364	-583.713815	197.063257	485.664484	-576.613288	204.487181	372.343038	-566.625970	237.070452	360.442918	-450.756468	202.755424	276.472369	-573.287238	163.649593	291.609792	-584.351899	136.099614	221.681463	-584.690919	176.712698	206.963901	-572.706909	58.154633	17.063930	-527.099396	84.615122	35.911613	-442.771302	-22.043485	-23.184896	-477.633652	187.558577	-10.985228	-462.567253	196.532488	0.428369	-506.072184	155.711372	-27.361731	-569.962972	194.575781	477.545318	-98.100007	233.831440	487.881432	-115.050023	252.549978	416.751154	-121.875321	216.967896	394.055311	-106.841019	201.044376	368.994373	-119.626732	230.602261	357.583208	-240.706265	188.578086	285.201608	-103.896989	149.119218	309.038295	-109.205307	152.882268	221.415762	-102.856164	113.424300	242.569952	-106.096958	34.024757	23.981945	-143.292027	80.066140	27.913370	-223.949022	-27.261479	-19.683809	-209.866035	178.619068	-13.296507	-161.193034	165.897534	5.168434	-111.686360	120.056473	-10.239554	-72.690391	-75.307650	807.040327	-279.481437	-82.644791	806.685104	-374.785449	94.775067	1222.133018	-333.710241	13.130536	1070.214155	-427.904789	46.682313	1066.551255	-230.022326	8.537558	1004.158164	-333.260424	162.751036	1199.359736	-516.344251	223.301552	1193.894009	-173.182846	74.846957	1078.756332	-615.721985	294.999418	1023.081343	-133.753723	-20.615761	959.616155	-660.687964	356.320118	874.880865	-163.289838	30.366956	729.688355	-586.329319	22.760064	729.896713	-649.478537	361.327413	958.402421	-390.840520	412.538594	916.146874	-394.913899
190	1.285714	47.948560	719.888829	-487.153463	89.145564	726.918020	-220.366324	153.430282	540.640600	-563.343572	117.452499	515.177904	-568.927414	163.158918	460.448050	-583.444020	198.013979	484.862898	-576.199956	206.243954	371.432932	-566.421195	238.624818	359.574621	-450.380808	204.353386	275.625326	-573.107674	165.337514	290.945495	-584.235274	137.437994	221.144395	-584.545843	177.970158	206.234920	-572.489495	58.272374	17.064987	-527.016703	84.759379	35.828785	-442.647586	-22.027862	-23.122747	-477.607959	187.589438	-11.036496	-462.546673	196.566059	0.402872	-506.043702	155.719786	-27.352560	-569.951691	195.704561	476.396455	-97.833710	234.839391	487.042107	-114.899331	254.181673	416.067791	-121.590527	218.741941	393.015464	-106.467045	202.869787	367.884875	-119.394978	232.337185	356.736115	-240.588602	190.056254	284.370167	-103.755386	150.770624	308.388462	-109.055858	154.102669	220.745780	-102.746048	114.772340	242.089039	-106.040476	34.170836	24.020129	-143.371397	80.325570	27.781778	-224.004819	-27.208139	-19.598269	-209.926963	178.633876	-13.384616	-161.125546	165.922373	5.060937	-111.623828	120.068384	-10.314960	-72.600245	-75.562410	803.968947	-279.020547	-82.868784	803.645878	-374.314306	96.825536	1217.999906	-333.305481	14.680620	1066.524256	-427.558714	48.143970	1062.883226	-229.500253	9.535765	1000.641474	-332.804910	165.104479	1194.862916	-515.885488	225.364284	1189.396112	-172.811106	76.942891	1074.398462	-615.231140	297.218436	1018.669976	-133.746032	-19.005640	955.619638	-660.009814	359.037226	870.736729	-163.793975	28.454921	724.478807	-587.117349	20.833639	725.187661	-650.267326	364.099349	954.549949	-391.251055	415.505353	912.511234	-395.297345
191	1.292517	47.395892	716.541054	-486.622755	88.602389	723.173988	-219.804548	153.837607	539.405394	-562.829860	118.066246	513.613288	-568.529716	164.239200	459.320328	-583.161558	198.978620	484.072336	-575.780882	207.986175	370.524966	-566.201794	240.162342	358.713864	-449.991481	205.937644	274.781903	-572.914375	167.013480	290.284001	-584.106233	138.768540	220.610704	-584.392918	179.218392	205.511902	-572.264524	58.393473	17.068313	-526.930077	84.903474	35.743166	-442.520369	-22.013629	-23.055817	-477.579948	187.622187	-11.091228	-462.524555	196.600139	0.376655	-506.012397	155.729133	-27.342807	-569.939243	196.839793	475.243360	-97.597004	235.849879	486.194265	-114.780426	255.819873	415.383711	-121.331086	220.521776	391.974631	-106.121823	204.695279	366.774478	-119.186221	234.070253	355.884032	-240.495305	191.540164	283.537372	-103.637066	152.424861	307.735449	-108.929659	155.325961	220.075092	-102.656135	116.121870	241.608341	-105.998515	34.322441	24.063704	-143.460603	80.587700	27.646189	-224.070661	-27.152285	-19.509277	-209.992145	178.651535	-13.477356	-161.063276	165.949073	4.955341	-111.569573	120.083797	-10.382934	-72.518844	-75.783413	800.877369	-278.556037	-83.059953	800.596596	-373.838860	98.871500	1213.849924	-332.890884	16.248267	1062.816408	-427.204669	49.613499	1059.196967	-228.967650	10.553193	997.105898	-332.332101	167.470071	1190.348457	-515.407606	227.413913	1184.893603	-172.420749	79.072397	1070.017495	-614.732692	299.417038	1014.256556	-133.704261	-17.339369	951.593542	-659.335617	361.730363	866.588846	-164.251927	26.578995	719.318266	-587.868963	18.990915	720.518979	-651.023032	366.868625	950.664541	-391.629058	418.471326	908.844550	-395.635413
